<svg width="142" height="79" viewBox="0 0 142 79" fill="none" xmlns="http://www.w3.org/2000/svg">
<path d="M22.08 11.12L22.44 10.64C23.96 10.92 25.2 11.36 26 12.16C26.52 12.72 26.6 13.32 26.36 14.12C25.16 18.24 21.16 23.88 17.2 27.6C13.96 30.68 10.36 32.36 7.44 32.36C5.44 32.36 4.16 31.16 4.16 28.76C4.16 23.12 9.64 17.8 15.64 15.24C18.28 14.08 21.32 13.4 24.48 13.4C31.8 13.4 36.44 18.16 36.44 23.48C36.44 31.76 28.48 35.16 17.12 35.24L16.96 34.44C27.44 32.48 32 27.8 32 22.36C32 18.04 28.88 14.84 23.92 14.84C21.24 14.84 18.64 15.6 15.44 17.32C10.72 19.96 7.68 24.44 7.68 27.24C7.68 28.04 7.96 28.36 8.68 28.36C10.72 28.36 13.84 26.52 16.2 24.52C19 22.08 22.52 17.36 23.52 14.44C24 13.04 23.6 12.16 22.08 11.12ZM12.76 2.2V1.64C13.56 1.2 14.76 0.679999 15.56 0.679999C17.92 0.679999 20.72 2 20.72 3.04C20.72 4.12 19.68 4.6 19.32 6.08C18.36 9.88 17.28 14.8 17.28 18.48C17.28 24 20 25.84 20 28.48C20 29.72 19.2 30.24 18.08 30.24C15.32 30.24 14.04 24.68 14.04 19.68C14.04 14.68 15.84 6.76 15.84 4.04C15.84 3.28 15.68 3.08 15.04 2.8C14.44 2.56 13.56 2.36 12.76 2.2ZM5.64 6.28L6.12 5.88C8.12 7.2 9.64 7.84 11.88 7.84C13.8 7.84 15.68 7.6 17.36 7.28C22.92 6.28 26.08 4.2 26.68 4.2C28.8 4.2 29.92 4.8 29.92 6C29.92 6.92 29.4 7.48 28.4 7.88C26.32 8.68 21.8 9.88 17.24 10.6C15.32 10.92 13.16 11.12 11.2 11.12C7.92 11.12 6.56 9.32 5.64 6.28ZM44.32 3.24L44.24 2.68C45.32 1.8 46.4 1.36 47.92 1.36C50.04 1.36 53.04 2.76 53.04 3.96C53.04 5.04 52.4 5.72 52.12 7C51.68 9.24 51.08 14.68 51.08 18.6C51.08 27.76 51.92 29.24 51.92 31.08C51.92 33.12 50.36 35.68 48.72 35.68C47.32 35.68 47.32 34.04 46.12 32.8C44.84 31.48 43.08 30.2 41.76 29.28L42.36 28.44C43.96 29.16 45.88 29.92 47.04 30.24C47.88 30.44 48.16 30.16 48.16 29.4C48.16 27 48.16 22.84 48.16 18.12C48.16 14.72 48.2 7.44 48.16 5.44C48.12 4.24 47.88 4.04 47.2 3.76C46.44 3.44 45.52 3.36 44.32 3.24ZM38.8 9.84C40.68 11.6 41.64 12 43.48 11.96C45.36 11.92 48.4 11.08 50.4 10.36C53.44 9.28 54.68 8.08 55.28 8.04C55.8 8 58.52 8 58.64 9.88C58.64 10.68 58.08 11.32 57.04 11.88C55.56 12.64 52.88 13.52 50.72 14.16C49.52 14.52 45.96 15.44 43.96 15.44C41.48 15.44 39.44 14.44 38.24 10.2L38.8 9.84ZM41.16 25.84C42.52 25.12 46 22.36 49.12 20.76C52.88 18.88 56.64 17.32 61.24 17.32C66.52 17.32 70.24 20.24 70.24 25.48C70.24 29.68 66.88 33.48 61.4 33.48C57.68 33.48 55.36 31.24 53.68 27.96L54.24 27.48C55.6 28.8 57.6 29.88 60.32 29.88C63.68 29.88 66 27.6 66 24.32C66 21.6 64.4 19.08 60.2 19.08C56.76 19.08 52.84 21.24 49.56 23.4C47.28 24.88 44.44 27.72 42.72 29.52C41.4 30.88 40.96 31.8 40.12 31.8C39.44 31.8 38.88 31.48 38.36 30.92C37.6 30.12 37.28 29.24 37.28 28.24C37.28 26.72 37.6 26.36 38.76 26.4C39.76 26.44 40.36 26.24 41.16 25.84ZM60.64 7.68L60.52 6.96C62.2 6.4 64.16 5.96 66.28 6.24C70.16 6.8 73.04 9.6 73.08 12.56C73.08 13.8 72.44 14.92 70.96 14.92C70 15 69.12 13.64 68.04 13.76C67.12 13.8 65.44 14.4 64.52 14.64L64.2 14.16C65 13.6 66.72 12.44 67.24 11.92C67.72 11.36 67.88 10.96 67.44 10.28C66.24 8.28 63.08 7.56 60.64 7.68ZM102.04 11.68C102.6 12.64 103.04 13.28 103.76 13.32C104.64 13.36 105.28 12.76 105.28 11.88C105.36 11.08 104.96 10.28 104.12 9.44C102.96 8.36 101.16 7.52 99.2 6.88L98.8 7.4C100.68 9.12 101.28 10.4 102.04 11.68ZM105.56 8.6C106.28 9.6 106.68 10.24 107.44 10.32C108.24 10.32 108.88 9.8 108.96 8.96C109 7.92 108.52 7.16 107.64 6.4C106.44 5.4 104.4 4.68 102.36 4.2L102 4.68C103.96 6.2 104.88 7.6 105.56 8.6ZM81.92 4.48C83.16 4.56 87 3.68 90 2.72C91.52 2.24 91.68 1.44 92.68 1.44C94.32 1.44 97.76 4.16 97.76 5.84C97.76 6.84 96.72 7.08 95.96 7.6C92.84 9.72 86.44 14.4 82.56 17.88C82.4 18.04 82.48 18.2 82.68 18.16C85.32 17.52 90.2 15.96 92.92 15.16C95.8 14.32 97.64 13.56 99.44 13.56C101.32 13.56 104.2 14.52 104.2 16.32C104.2 17.32 103.44 18 101.64 18C100.64 18 99.2 17.92 97.64 17.96C95.32 18 91.2 18.48 88.88 20.16C87.28 21.36 85.84 23 85.84 25.88C85.88 28.48 87.8 29.8 90.8 30.36C92.96 30.8 94.96 30.52 96.16 30.68C97.24 30.88 98.48 32.16 98.48 33.36C98.48 35.04 97.2 35.56 94.92 35.56C92.96 35.56 90.72 35.28 89.44 34.88C85.76 33.76 83.16 31.24 83.16 27.36C83.16 23.8 85.24 21.44 86.96 19.84C87.4 19.44 87.32 19.2 86.72 19.4C84.4 20.04 81.56 21.28 79.92 22.32C77.4 23.88 76.72 25.16 75.2 25.16C73.96 25.16 72.6 23.44 72.6 22.2C72.6 21.24 72.92 20.68 73.92 20.32C74.84 19.96 76.52 19.48 77.56 18.92C79.4 18 81.68 16.04 83.96 13.84C85.84 12.04 89.64 8.16 91.36 5.52C91.88 4.76 91.64 4.56 90.8 4.88C89.36 5.32 87 6.72 85.64 7.56C84.48 8.28 83.72 9 82.52 9C81.28 9 78.36 6.6 78.4 4.44C78.4 3.72 78.84 2.44 79.24 1.72L79.68 1.68C80.28 2.84 81.08 4.44 81.92 4.48Z" fill="#46B6E6"/>
<path d="M114.4 2.32L114.52 1.68C118.52 1.4 121 2.04 122.6 3.04C124.92 4.32 126.16 6.04 126.16 8.4C126.16 9.48 125.64 10.2 124.32 10.2C122.96 10.2 122 9.72 120.24 9.6C118.32 9.44 115.72 9.76 114.72 9.92C114 10.04 113.84 10.36 113.84 10.68C113.84 11.28 114.44 12.28 114.52 13.4C114.6 14.56 114.44 15.4 114.28 16.72C114.08 18.28 113.6 19.92 113.68 21.12C113.68 21.56 113.88 21.64 114.2 21.44C117 19.56 121.96 16.28 127.44 16.28C133.84 16.28 137.04 20.68 137.04 25C137.04 32.76 125.48 35.96 115.48 35.04L115.36 34.2C118.48 33.8 121.6 33.08 123.44 32.4C130.36 29.88 132.28 26.68 132.28 23.4C132.28 20.6 130.4 18 126.96 18C122.48 18 117.72 22.88 115.44 25.76C114.4 27.12 113.92 28.76 112.56 28.76C111.8 28.76 111.04 28.28 110.32 27.44C109.6 26.64 109.24 25.84 109.24 24.92C109.24 24.12 109.52 23.24 109.8 21.68C110.08 19.84 110.72 15.88 110.88 14C111 12.84 111 12.16 111 11.12C111 10.08 111.4 8.8 112.84 8.6C114.56 8.28 118.32 7.36 119.68 6.64C120.12 6.36 120.16 6.04 119.8 5.52C118.76 3.92 116.84 3.12 114.4 2.32Z" fill="#46B6E6"/>
<path d="M15.48 76.24H45.6L48.04 73.12C48.04 73.12 50.84 75.24 52.56 76.72C52.44 77.16 52 77.36 51.4 77.36H15.8L15.48 76.24ZM15.68 44.72H29.8L31.88 42.12C31.88 42.12 34.28 43.92 35.72 45.24C35.6 45.68 35.24 45.88 34.68 45.88H16L15.68 44.72ZM17.92 64.52H42.92L45.24 61.64C45.24 61.64 47.84 63.6 49.44 65C49.32 65.44 48.88 65.64 48.32 65.64H18.28L17.92 64.52ZM31.68 64.56H36.24V77H31.68V64.56ZM34.52 70.04H41.52L43.88 67.04C43.88 67.04 46.56 69.08 48.2 70.52C48.08 70.96 47.64 71.16 47.08 71.16H34.52V70.04ZM22.52 67.84L28.28 68.32C28.2 68.84 27.96 69.2 26.96 69.36V76.84H22.52V67.84ZM18.96 53.12H31.04V54.28H18.96V53.12ZM22.72 53.2H27.12V53.84C24.76 57.92 20.44 61 15.16 63.16L14.84 62.56C18.4 60.16 21.16 56.72 22.72 53.2ZM44.96 47.2H49.96C48 55.16 42.36 60.2 32.64 62.8L32.44 62.32C39.92 58.92 43.84 53.8 44.96 47.2ZM23.08 40.96L28.48 41.44C28.4 41.96 28.12 42.32 27.16 42.44V62.16C27.16 62.56 25.36 63.32 23.88 63.32H23.08V40.96ZM27.32 55.52C37.08 55.6 34.72 62.64 30.92 60.68C30.28 58.92 28.44 56.92 27 55.84L27.32 55.52ZM38.6 48.16C40.76 53.56 45.44 57.04 53.2 58.52L53.16 58.96C51.4 59.6 50.56 60.92 50.32 63.08C43.24 60.48 40.16 55.48 38.2 48.84L38.6 48.16ZM16.88 48.28V46.68L20.76 48.28H31.08V49.4H20.56V54.44C20.56 54.76 18.92 55.56 17.4 55.56H16.88V48.28ZM29.88 48.28H29.56L31.24 46.52L34.76 49.16C34.6 49.36 34.16 49.64 33.6 49.72V54C33.6 54.28 31.76 55.12 30.52 55.12H29.88V48.28ZM38.4 41.16L44.12 42.76C43.96 43.24 43.48 43.6 42.6 43.6C40.76 47.96 38.08 51.32 34.88 53.4L34.36 53.04C36.2 50.12 37.76 45.68 38.4 41.16ZM38.36 47.2H46.28L48.56 44.12C48.56 44.12 51.16 46.24 52.72 47.72C52.6 48.16 52.2 48.36 51.64 48.36H38.36V47.2ZM58.6 59.04V57.08L63.48 59.04H78.04V60.2H63.2V77C63.2 77.48 61.24 78.52 59.28 78.52H58.6V59.04ZM59.88 63.8H77.24V64.96H59.88V63.8ZM59.88 43.4H77.4V44.52H59.88V43.4ZM54.8 54.12H83.76V55.24H54.8V54.12ZM59.88 68.76H77.24V69.92H59.88V68.76ZM81.48 54.12H81.04L83.44 51.72L87.56 55.68C87.24 56 86.84 56.08 86 56.12C84.72 57.28 82.52 58.96 80.92 59.88L80.52 59.64C80.88 58.12 81.32 55.52 81.48 54.12ZM58.32 43.4V41.48L63.32 43.4H62.8V54.76H58.32V43.4ZM68.84 48.36H77.2V49.52H68.84V48.36ZM66.84 48.36V46.64L71.28 48.36H70.92V54.8H66.84V48.36ZM74.64 43.4H74.24L76.44 41.04L80.84 44.4C80.6 44.72 80.04 45.04 79.2 45.2V54.76H74.64V43.4ZM54.4 51.32H54.92C57 55.96 56.4 59.44 54.8 60.92C53.68 61.96 51.48 61.68 50.8 60.08C50.2 58.56 51.04 57.28 52.32 56.56C53.36 55.64 54.68 53.4 54.4 51.32ZM74.48 59.04H74.08L76.16 56.64L80.8 60.16C80.56 60.44 80 60.8 79.16 60.96V73.6C79.16 76.56 78.48 78.28 73.24 78.72C73.16 77.32 72.96 76.28 72.4 75.68C71.88 75.04 71.04 74.52 69.24 74.2V73.68C69.24 73.68 72.76 73.92 73.68 73.92C74.28 73.92 74.48 73.64 74.48 73.16V59.04ZM100.56 46.92H118.24V48.04H100.56V46.92ZM106.76 41.16L112.64 41.64C112.6 42.16 112.28 42.52 111.32 42.68V47.48H106.76V41.16ZM117 46.92H116.56L118.84 44.6L122.84 48.4C122.52 48.76 122.12 48.84 121.28 48.88C120.08 49.76 117.96 51.04 116.48 51.72L116.08 51.48C116.4 50.28 116.84 48.12 117 46.92ZM99.6 53.68H113.2L115.44 50.72C115.44 50.72 118 52.76 119.56 54.16C119.44 54.6 119 54.8 118.44 54.8H99.92L99.6 53.68ZM97.84 59.76H115.92L118.24 56.6C118.24 56.6 120.88 58.76 122.44 60.24C122.36 60.68 121.92 60.88 121.36 60.88H98.16L97.84 59.76ZM86.36 43.96V42.12L91.2 43.96H90.64V77.24C90.64 77.56 89.32 78.64 87.16 78.64H86.36V43.96ZM88.48 43.96H96V45.08H88.48V43.96ZM93.88 43.96H93.4L95.68 41.72L99.92 45.68C99.64 46.08 99.08 46.2 98.16 46.24C96.92 48.6 94.72 52.68 92.88 55.08C96.56 57.72 98.16 61.4 98.16 64.52C98.16 68.36 96.84 70.52 92.76 70.6C92.76 69.44 92.6 67.76 92.28 67.24C92 66.84 91.48 66.48 90.72 66.28V65.8C91.28 65.8 92.2 65.8 92.56 65.8C92.96 65.8 93.16 65.76 93.4 65.56C93.84 65.28 94.08 64.56 94.08 63.4C94.08 60.68 93.52 57.72 91.88 55.16C92.6 52.32 93.52 46.88 93.88 43.96ZM100.56 44.08H101.16C102.92 48.24 102.2 51.36 100.68 52.6C99.6 53.44 97.8 53.24 97.2 51.88C96.72 50.6 97.44 49.48 98.6 48.84C99.64 48.04 100.76 46 100.56 44.08ZM110.32 60.08H114.68C114.68 60.56 114.68 61.12 114.68 61.44V72.64C114.68 73.12 114.8 73.28 115.52 73.28H117.16C117.84 73.28 118.4 73.28 118.68 73.28C119.04 73.28 119.16 73.2 119.4 72.8C119.76 72.12 120.36 69.92 120.96 67.56H121.44L121.56 73.04C122.6 73.52 122.8 74.08 122.8 74.88C122.8 76.6 121.4 77.56 116.72 77.56H114.16C110.88 77.56 110.32 76.68 110.32 73.84V60.08ZM102.76 60.12H107.52C107.16 69.76 104.2 75.6 93.28 78.56L93.08 78.04C101.2 73.92 102.68 68.36 102.76 60.12Z" fill="#46B6E6"/>
</svg>
